<svg width="28" height="28" viewBox="0 0 28 28" fill="none" xmlns="http://www.w3.org/2000/svg">
<path d="M18.6343 5.02185C18.7627 4.67246 19.2568 4.67246 19.3852 5.02185L20.2895 7.48281C20.3299 7.59299 20.4168 7.67983 20.527 7.72031L22.9879 8.62454C23.3373 8.75292 23.3373 9.24708 22.9879 9.37546L20.527 10.2797C20.4168 10.3202 20.3299 10.407 20.2895 10.5172L19.3852 12.9781C19.2568 13.3275 18.7627 13.3275 18.6343 12.9781L17.7301 10.5172C17.6896 10.407 17.6028 10.3202 17.4926 10.2797L15.0316 9.37546C14.6822 9.24708 14.6822 8.75292 15.0316 8.62454L17.4926 7.72031C17.6028 7.67983 17.6896 7.59299 17.7301 7.48281L18.6343 5.02185Z" stroke="white" stroke-width="1.25"/>
<path d="M4.48092 9.7997C4.48092 7.63473 6.23253 5.8797 8.39328 5.8797H14.5413C15.0043 5.8797 15.3796 5.50361 15.3796 5.03971C15.3796 4.57579 15.0043 4.19971 14.5413 4.19971H8.39328C5.30652 4.19971 2.8042 6.7069 2.8042 9.7997V19.5997C2.8042 22.6925 5.30651 25.1997 8.39328 25.1997H18.1742C21.2609 25.1997 23.7633 22.6925 23.7633 19.5997V13.4397C23.7633 12.9758 23.3879 12.5997 22.9249 12.5997C22.4619 12.5997 22.0865 12.9758 22.0865 13.4397V19.5997C22.0865 21.7647 20.3349 23.5197 18.1742 23.5197H8.39328C6.23253 23.5197 4.48092 21.7647 4.48092 19.5997V9.7997Z" fill="white" stroke="white" stroke-width="0.5"/>
<rect x="6.00977" y="14" width="9" height="2" rx="1" fill="white"/>
<rect x="6.00977" y="18" width="13" height="2" rx="1" fill="white"/>
</svg>
