<svg xmlns="http://www.w3.org/2000/svg" width="24" height="24" viewBox="0 0 24 24" fill="none">
  <path d="M18.928 2.99953C18.6656 2.99958 18.4139 3.10391 18.2283 3.28953L13.9796 7.53822V4.97891C13.9796 4.43233 13.5365 3.98925 12.99 3.98925C12.4434 3.98925 12.0003 4.43233 12.0003 4.97891V9.92733C12.0002 10.4739 12.4434 10.917 12.99 10.917H17.9383C18.4849 10.917 18.928 10.4739 18.928 9.92733C18.928 9.38075 18.4849 8.93766 17.9383 8.93766H15.379L19.6277 4.68896C20.0142 4.30243 20.0141 3.67578 19.6275 3.28934C19.442 3.10382 19.1904 2.99963 18.928 2.99953Z" fill="black"/>
  <path d="M10.9156 12.999H5.96719C5.42061 12.999 4.97753 13.4421 4.97753 13.9887C4.97753 14.5353 5.42061 14.9784 5.96719 14.9784H8.5265L4.27781 19.2271C3.89809 19.6202 3.909 20.2468 4.30212 20.6265C4.68563 20.9969 5.29368 20.9969 5.6772 20.6265L9.9259 16.3778V18.9371C9.9259 19.4837 10.369 19.9268 10.9156 19.9268C11.4621 19.9268 11.9053 19.4837 11.9053 18.9371V13.9887C11.9053 13.4421 11.4622 12.999 10.9156 12.999Z" fill="black"/>
</svg>
