<svg xmlns="http://www.w3.org/2000/svg" width="28" height="28" viewBox="0 0 28 28" fill="none">
<path d="M18.6346 5.02185C18.7629 4.67246 19.2571 4.67246 19.3855 5.02185L20.2897 7.48281C20.3302 7.59299 20.417 7.67983 20.5272 7.72031L22.9882 8.62454C23.3376 8.75292 23.3376 9.24708 22.9882 9.37546L20.5272 10.2797C20.417 10.3202 20.3302 10.407 20.2897 10.5172L19.3855 12.9781C19.2571 13.3275 18.7629 13.3275 18.6346 12.9781L17.7303 10.5172C17.6898 10.407 17.603 10.3202 17.4928 10.2797L15.0319 9.37546C14.6825 9.24708 14.6825 8.75292 15.0319 8.62454L17.4928 7.72031C17.603 7.67983 17.6898 7.59299 17.7303 7.48281L18.6346 5.02185Z" stroke="#0069F2" stroke-width="1.25"/>
<path d="M4.48117 9.80018C4.48117 7.63522 6.23278 5.88018 8.39353 5.88018H14.5415C15.0045 5.88018 15.3799 5.5041 15.3799 5.0402C15.3799 4.57628 15.0045 4.2002 14.5415 4.2002H8.39353C5.30676 4.2002 2.80444 6.70739 2.80444 9.80018V19.6002C2.80444 22.693 5.30676 25.2002 8.39353 25.2002H18.1744C21.2612 25.2002 23.7635 22.693 23.7635 19.6002V13.4402C23.7635 12.9763 23.3882 12.6002 22.9251 12.6002C22.4621 12.6002 22.0868 12.9763 22.0868 13.4402V19.6002C22.0868 21.7652 20.3352 23.5202 18.1744 23.5202H8.39353C6.23278 23.5202 4.48117 21.7652 4.48117 19.6002V9.80018Z" fill="black" stroke="black" stroke-width="0.5"/>
<rect x="6.01001" y="14" width="9" height="2" rx="1" fill="black"/>
<rect x="6.01001" y="18" width="13" height="2" rx="1" fill="black"/>
</svg>
