<svg preserveAspectRatio="none" width="100%" height="100%" overflow="visible" style="display: block;" viewBox="0 0 24 24" fill="none" xmlns="http://www.w3.org/2000/svg">
<g id="SVG">
<path id="Vector" d="M11 4.702C10.9996 4.41717 10.8278 4.16057 10.5647 4.05163C10.3015 3.94268 9.99861 4.0028 9.797 4.204L6.413 7.587C6.14921 7.85237 5.79017 8.0011 5.416 8H3C2.44808 8 2 8.44809 2 9V15C2 15.5519 2.44808 16 3 16H5.416C5.79017 15.9989 6.14921 16.1476 6.413 16.413L9.796 19.797C9.99765 19.999 10.3012 20.0596 10.5649 19.9503C10.8286 19.841 11.0004 19.5835 11 19.298V4.702" stroke="#0069F2" stroke-width="2" stroke-linecap="round" stroke-linejoin="round"/>
<path id="Vector_2" d="M16 9C17.3333 10.7778 17.3333 13.2222 16 15" stroke="#0069F2" stroke-width="2" stroke-linecap="round" stroke-linejoin="round"/>
<path id="Vector_3" d="M19.364 18.364C21.0519 16.6762 22.0001 14.387 22.0001 12C22.0001 9.61303 21.0519 7.32383 19.364 5.636" stroke="#0069F2" stroke-width="2" stroke-linecap="round" stroke-linejoin="round"/>
</g>
</svg>
