<svg width="23" height="23" viewBox="0 0 23 23" fill="none" xmlns="http://www.w3.org/2000/svg">
<path d="M13.9507 1.1626H8.37032C3.3173 1.1626 1.16235 3.31848 1.16235 8.37056V13.9509C1.16235 19.003 3.3173 21.1589 8.37032 21.1589H13.9507C19.0037 21.1589 21.1586 19.003 21.1586 13.9509V8.37056C21.1586 3.31848 19.0037 1.1626 13.9507 1.1626ZM19.7635 13.9509C19.7635 18.2422 18.242 19.7638 13.9507 19.7638H8.37032C5.80614 19.7638 4.23713 19.2141 3.38427 17.8618L7.45142 15.133C7.69469 14.9764 7.98084 14.8997 8.26984 14.9137C8.55884 14.9277 8.83623 15.0317 9.06321 15.2111L9.37292 15.4771C9.86962 15.8892 10.4947 16.1147 11.14 16.1147C11.7854 16.1147 12.4104 15.8892 12.9071 15.4771L16.7771 12.1568C17.0211 11.9626 17.3237 11.8569 17.6356 11.8569C17.9474 11.8569 18.25 11.9626 18.494 12.1568L19.7654 13.2478L19.7635 13.9509ZM19.7635 11.4091L19.3999 11.0975C18.9032 10.6855 18.2781 10.46 17.6328 10.46C16.9874 10.46 16.3624 10.6855 15.8657 11.0975L11.9975 14.4159C11.7537 14.6097 11.4515 14.7152 11.14 14.7152C10.8286 14.7152 10.5263 14.6097 10.2825 14.4159L9.97281 14.1499C9.51477 13.7707 8.94696 13.5487 8.35314 13.5167C7.75932 13.4847 7.17094 13.6444 6.67482 13.9723L2.8346 16.5551C2.6324 15.7022 2.53866 14.8273 2.55558 13.9509V8.37056C2.55744 4.07926 4.07902 2.55769 8.37032 2.55769H13.9507C18.242 2.55769 19.7635 4.07926 19.7635 8.37056V11.4091ZM8.37032 4.88284C7.86446 4.88284 7.36996 5.03284 6.94935 5.31388C6.52875 5.59492 6.20093 5.99437 6.00734 6.46172C5.81376 6.92908 5.76311 7.44334 5.8618 7.93947C5.96048 8.43561 6.20408 8.89135 6.56177 9.24904C6.91947 9.60674 7.3752 9.85033 7.87134 9.94902C8.36748 10.0477 8.88174 9.99706 9.34909 9.80347C9.81644 9.60989 10.2159 9.28207 10.4969 8.86146C10.778 8.44086 10.928 7.94636 10.928 7.4405C10.9275 6.76232 10.6579 6.11205 10.1783 5.6325C9.69876 5.15295 9.0485 4.88333 8.37032 4.88284ZM8.37032 8.60307C8.14038 8.60307 7.91561 8.53489 7.72442 8.40715C7.53324 8.2794 7.38423 8.09783 7.29624 7.8854C7.20824 7.67297 7.18522 7.43921 7.23008 7.21369C7.27494 6.98817 7.38566 6.78102 7.54825 6.61844C7.71084 6.45585 7.91799 6.34512 8.14351 6.30026C8.36903 6.25541 8.60278 6.27843 8.81521 6.36642C9.02765 6.45441 9.20922 6.60342 9.33696 6.79461C9.46471 6.98579 9.53289 7.21056 9.53289 7.4405C9.5324 7.74868 9.40975 8.0441 9.19184 8.26202C8.97392 8.47994 8.6785 8.60258 8.37032 8.60307Z" fill="white" stroke="white" stroke-width="0.446429"/>
</svg>
