<svg width="25" height="25" viewBox="0 0 25 25" fill="none" xmlns="http://www.w3.org/2000/svg">
<path d="M5.46883 14.5833H10.0699L9.11987 23.5635C9.11571 23.5906 9.11467 23.6708 9.11467 23.6979C9.11467 24.4156 9.69904 25 10.4167 25C10.8251 25 11.2147 24.8042 11.473 24.4573L20.573 11.4583C20.7407 11.2344 20.8334 10.9573 20.8334 10.6771C20.8334 9.95937 20.249 9.375 19.5313 9.375H13.9001L14.8376 1.45521C14.8407 1.425 14.8428 1.33229 14.8428 1.30208C14.8438 0.584375 14.2595 0 13.5417 0C13.1334 0 12.7438 0.195833 12.4772 0.553125L4.42716 12.5C4.25946 12.724 4.16675 13.001 4.16675 13.2812C4.16675 13.999 4.75112 14.5833 5.46883 14.5833Z" fill="white"/>
</svg>
