<svg xmlns="http://www.w3.org/2000/svg" width="120" height="120" viewBox="0 0 120 120" fill="none">
  <g clip-path="url(#clip0_44_471)">
    <path d="M57.9563 99.1492C56.4593 97.6523 54.2525 97.1417 52.237 97.789C50.0104 98.5043 47.6221 98.8563 45.1433 98.7753C39.1476 98.5798 33.7784 95.8355 30.0739 91.6054L33.0137 89.7021C34.8774 88.4956 34.684 85.7094 32.6716 84.7715L17.2948 77.6066C15.4066 76.7268 13.2483 78.1243 13.2781 80.2071V97.1692C13.3101 99.3892 16.0174 100.706 17.8812 99.4991L20.7508 97.6412C26.5417 104.886 35.3167 109.726 44.9499 109.988C48.7308 110.09 52.3723 109.537 55.7678 108.433C59.7311 107.146 60.9028 102.096 57.9563 99.1492Z" fill="url(#paint0_linear_44_471)"/>
    <path d="M57.9563 99.1495C56.4596 97.6526 54.2525 97.142 52.2373 97.7893C50.0107 98.5046 47.6224 98.8566 45.1436 98.7756C41.5634 98.6589 38.2069 97.6328 35.2944 95.9248V108.142C38.3495 109.25 41.5977 109.897 44.9504 109.988C48.7314 110.091 52.3728 109.538 55.7683 108.434C59.7311 107.146 60.9029 102.096 57.9563 99.1495Z" fill="url(#paint1_linear_44_471)"/>
    <path d="M62.0439 20.8507C63.5408 22.3476 65.7476 22.8582 67.7632 22.2109C69.9897 21.4956 72.378 21.1436 74.8568 21.2246C80.8526 21.4201 86.2217 24.1643 89.9262 28.3944L86.9864 30.2977C85.1227 31.5043 85.3161 34.2904 87.3286 35.2283L102.705 42.3933C104.594 43.273 106.752 41.8756 106.722 39.7928V22.8304C106.69 20.6104 103.983 19.2937 102.119 20.5006L99.2493 22.3584C93.4584 15.1133 84.6834 10.2735 75.0502 10.0121C71.2693 9.9095 67.6279 10.4627 64.2323 11.5662C60.269 12.8542 59.0973 17.9041 62.0439 20.8507Z" fill="url(#paint2_linear_44_471)"/>
    <path d="M84.7057 11.8584C81.6506 10.75 78.4024 10.1031 75.0497 10.0121C71.2687 9.9095 67.6273 10.4627 64.2318 11.5662C60.2687 12.8542 59.0967 17.9043 62.0433 20.8509C63.54 22.3479 65.7471 22.8584 67.7624 22.2111C69.989 21.4959 72.3772 21.1439 74.856 21.2248C78.4362 21.3415 81.7927 22.3676 84.7052 24.0756V11.8584H84.7057Z" fill="url(#paint3_linear_44_471)"/>
    <path d="M104.804 120H62.4895C54.0972 120 47.2939 113.197 47.2939 104.804V62.4895C47.2939 54.0972 54.0972 47.2939 62.4895 47.2939H104.804C113.197 47.2939 120 54.0972 120 62.4895V104.804C120 113.197 113.197 120 104.804 120Z" fill="url(#paint4_linear_44_471)"/>
    <path d="M120 94.5881V104.805C120 113.197 113.197 120 104.805 120H62.4892C54.0963 120 47.2939 113.197 47.2939 104.805V62.4892C47.2939 54.0963 54.0963 47.2939 62.4892 47.2939H72.7057L120 94.5881Z" fill="url(#paint5_linear_44_471)"/>
    <path d="M104.804 120C113.197 120 120 113.196 120 104.804V81.9332L106.404 68.3372C105.774 67.3746 104.687 66.7376 103.451 66.7376H90.0924C90.031 66.6913 86.8352 63.5341 86.8352 63.5341C86.2049 62.5715 85.1188 61.9346 83.8823 61.9346C81.9331 61.9346 80.3529 63.5148 80.3529 65.464V66.7376H64.3138C62.3647 66.7376 60.7844 68.3179 60.7844 70.267C60.7844 71.5035 61.4214 72.5896 62.3839 73.22L71.4214 82.3066C72.8049 86.4073 75.06 90.0812 78.0501 93.1285C73.5724 95.8066 68.7183 97.727 63.5623 98.8503C61.6576 99.2654 60.4501 101.146 60.8651 103.05C61.0703 103.992 61.6348 104.763 62.3828 105.252L77.1305 120H104.804Z" fill="url(#paint6_linear_44_471)"/>
    <path d="M103.967 98.616C98.8069 97.4917 93.9493 95.5691 89.4691 92.888C94.4837 87.7473 97.4413 80.8141 97.6013 73.5621H103.216C105.165 73.5621 106.745 71.9818 106.745 70.0327C106.745 68.0835 105.165 66.5033 103.216 66.5033H87.1764V65.2296C87.1764 63.2804 85.5961 61.7002 83.6469 61.7002C81.6978 61.7002 80.1175 63.2804 80.1175 65.2296V66.5033H64.0785C62.1293 66.5033 60.5491 68.0835 60.5491 70.0327C60.5491 71.9818 62.1293 73.5621 64.0785 73.5621H90.5425C90.3735 79.3296 87.8533 84.8169 83.6453 88.712C80.894 86.1785 78.8653 82.9922 77.7298 79.38C77.1453 77.5204 75.1639 76.4865 73.3041 77.0715C71.4448 77.656 70.4112 79.6374 70.9956 81.4971C72.358 85.8303 74.6848 89.7049 77.8145 92.8941C73.3368 95.5722 68.4827 97.4927 63.3267 98.616C61.422 99.031 60.2145 100.911 60.6295 102.816C60.9893 104.467 62.4507 105.595 64.0747 105.595C64.3236 105.595 64.5766 105.568 64.8295 105.513C71.5985 104.038 77.9149 101.367 83.6467 97.5618C89.3785 101.367 95.6949 104.038 102.464 105.513C102.717 105.568 102.97 105.595 103.219 105.595C104.842 105.595 106.304 104.467 106.664 102.816C107.079 100.911 105.872 99.0308 103.967 98.616Z" fill="white"/>
    <path d="M47.2939 96.4248V104.805C47.2939 113.197 54.0972 120 62.4895 120H104.804C113.197 120 120 113.197 120 104.805V96.4248H47.2939Z" fill="url(#paint7_linear_44_471)"/>
    <path d="M57.5104 72.7059H15.1955C6.8033 72.7059 0 65.9026 0 57.5104V15.1955C0 6.8033 6.8033 0 15.1955 0H57.5104C65.9026 0 72.7059 6.8033 72.7059 15.1955V57.5104C72.7059 65.9026 65.9026 72.7059 57.5104 72.7059Z" fill="url(#paint8_linear_44_471)"/>
    <path d="M0 49.1309V57.5109C0 65.9031 6.8033 72.7064 15.1955 72.7064H57.5104C65.9026 72.7064 72.7059 65.9031 72.7059 57.5109V49.1309H0Z" fill="url(#paint9_linear_44_471)"/>
    <path d="M42.8238 10.8232H32.0002L15.9219 61.8037L26.8238 72.7056H57.5106C65.9028 72.7056 72.7061 65.9023 72.7061 57.5101V40.7056L42.8238 10.8232Z" fill="url(#paint10_linear_44_471)"/>
    <path d="M14.5576 59.1985C14.5576 58.9736 14.6327 58.6734 14.708 58.3734L28.6628 12.6072C29.488 9.98135 32.8642 8.70605 36.3155 8.70605C39.7668 8.70605 43.1428 9.98135 43.9682 12.6072L57.9979 58.3734C58.0729 58.6731 58.1482 58.9734 58.1482 59.1985C58.1482 61.9748 53.8715 64.0002 50.6454 64.0002C48.7699 64.0002 47.2691 63.4002 46.819 61.8244L44.268 52.4461H28.4379L25.8868 61.8244C25.4367 63.4002 23.936 64.0002 22.0604 64.0002C18.8346 64.0002 14.5576 61.9748 14.5576 59.1985ZM41.7924 43.443L36.3155 23.3359L30.8386 43.443H41.7924Z" fill="white"/>
  </g>
  <defs>
    <linearGradient id="paint0_linear_44_471" x1="16.6979" y1="79.7727" x2="42.1979" y2="105.272" gradientUnits="userSpaceOnUse">
      <stop stop-color="#BCE097"/>
      <stop offset="1" stop-color="#7DC03A"/>
    </linearGradient>
    <linearGradient id="paint1_linear_44_471" x1="37.6471" y1="102.962" x2="48.1302" y2="102.962" gradientUnits="userSpaceOnUse">
      <stop stop-color="#8CC951" stop-opacity="0"/>
      <stop offset="1" stop-color="#3E6E66"/>
    </linearGradient>
    <linearGradient id="paint2_linear_44_471" x1="77.0669" y1="13.9919" x2="104.176" y2="41.1008" gradientUnits="userSpaceOnUse">
      <stop stop-color="#BCE097"/>
      <stop offset="1" stop-color="#7DC03A"/>
    </linearGradient>
    <linearGradient id="paint3_linear_44_471" x1="82.588" y1="17.038" x2="71.6727" y2="17.038" gradientUnits="userSpaceOnUse">
      <stop stop-color="#8CC951" stop-opacity="0"/>
      <stop offset="1" stop-color="#3E6E66"/>
    </linearGradient>
    <linearGradient id="paint4_linear_44_471" x1="56.9083" y1="56.9083" x2="109.776" y2="109.776" gradientUnits="userSpaceOnUse">
      <stop stop-color="#5EAEFF"/>
      <stop offset="0.833" stop-color="#518EF8"/>
      <stop offset="1" stop-color="#4A66FF"/>
    </linearGradient>
    <linearGradient id="paint5_linear_44_471" x1="85.7739" y1="104.971" x2="26.3796" y2="45.5763" gradientUnits="userSpaceOnUse">
      <stop stop-color="#4071F7" stop-opacity="0"/>
      <stop offset="1" stop-color="#30569F"/>
    </linearGradient>
    <linearGradient id="paint6_linear_44_471" x1="121.505" y1="123.906" x2="67.9287" y2="70.3303" gradientUnits="userSpaceOnUse">
      <stop stop-color="#4071F7" stop-opacity="0"/>
      <stop offset="1" stop-color="#30569F"/>
    </linearGradient>
    <linearGradient id="paint7_linear_44_471" x1="83.6469" y1="105.459" x2="83.6469" y2="120.003" gradientUnits="userSpaceOnUse">
      <stop stop-color="#4071F7" stop-opacity="0"/>
      <stop offset="1" stop-color="#30569F"/>
    </linearGradient>
    <linearGradient id="paint8_linear_44_471" x1="9.61435" y1="9.61435" x2="62.4819" y2="62.4819" gradientUnits="userSpaceOnUse">
      <stop stop-color="#5EAEFF"/>
      <stop offset="0.833" stop-color="#518EF8"/>
      <stop offset="1" stop-color="#4A66FF"/>
    </linearGradient>
    <linearGradient id="paint9_linear_44_471" x1="36.3529" y1="58.1652" x2="36.3529" y2="72.7092" gradientUnits="userSpaceOnUse">
      <stop stop-color="#8AAADC" stop-opacity="0"/>
      <stop offset="1" stop-color="#8AAADC"/>
    </linearGradient>
    <linearGradient id="paint10_linear_44_471" x1="90.7619" y1="72.672" x2="30.2913" y2="39.2602" gradientUnits="userSpaceOnUse">
      <stop stop-color="#8AAADC" stop-opacity="0"/>
      <stop offset="1" stop-color="#A7C9FF" stop-opacity="0.5"/>
    </linearGradient>
    <clipPath id="clip0_44_471">
      <rect width="120" height="120" fill="white"/>
    </clipPath>
  </defs>
</svg>
