<svg preserveAspectRatio="none" width="100%" height="100%" overflow="visible" style="display: block;" viewBox="0 0 114 114" fill="none" xmlns="http://www.w3.org/2000/svg">
<g id="Layer_1">
<g id="Group">
<path id="Vector" fill-rule="evenodd" clip-rule="evenodd" d="M43.9048 24.8693C44.8874 12.8383 55.3705 3.83943 67.4115 4.69087C79.4526 5.5423 88.5652 15.9265 87.8449 27.9763C99.3431 27.9763 108.75 37.3837 108.75 48.8817C108.75 60.3796 99.3429 69.7873 87.8449 69.7873H19.5827C11.2601 69.7219 4.54766 62.9564 4.54766 54.6333C4.54766 46.3102 11.2599 39.5448 19.5827 39.4793C17.5584 31.4546 22.8097 23.0444 30.3061 21.2743C34.8425 20.2031 40.1059 21.4208 43.9048 24.8693Z" fill="#2A93FC"/>
<path id="Vector_2" fill-rule="evenodd" clip-rule="evenodd" d="M87.8448 27.9766C99.343 27.9766 108.75 37.384 108.75 48.882C108.75 60.38 99.3428 69.7876 87.8448 69.7876H26.8393C18.5166 69.7222 11.8042 62.9568 11.8042 54.6336C11.8042 46.3105 18.5166 39.5453 26.8393 39.4797C24.4793 24.313 41.8418 21.1889 47.4134 29.8137C50.4275 2.1587 86.1607 3.71907 87.8446 27.9764L87.8448 27.9766Z" fill="#5CAEFF"/>
</g>
<path id="Vector_3" fill-rule="evenodd" clip-rule="evenodd" d="M61.9876 12.3038C61.2642 12.4363 60.5704 11.9573 60.4377 11.2339C60.3052 10.5105 60.7842 9.81671 61.5076 9.68401C61.8587 9.61899 62.2029 9.56377 62.54 9.51768C67.7192 8.81186 72.3616 10.0886 75.9221 12.656C79.4946 15.2319 81.9666 19.1026 82.794 23.5735C82.8465 23.8581 82.8921 24.1402 82.93 24.4194C83.028 25.1484 82.5163 25.819 81.7871 25.917C81.0579 26.015 80.3875 25.5033 80.2895 24.7741C80.2559 24.5269 80.2174 24.2867 80.1742 24.0533C79.4735 20.2669 77.3843 16.9923 74.3669 14.8162C71.3374 12.6318 67.3601 11.5494 62.8947 12.1579C62.5897 12.1996 62.2871 12.2481 61.9876 12.3033V12.3038Z" fill="#BDDFFF"/>
<path id="Vector_4" fill-rule="evenodd" clip-rule="evenodd" d="M56.6696 33.3233C65.0595 33.3233 71.9238 40.1876 71.9238 48.5775V58.2998H66.1127V48.5775C66.1127 43.3951 61.852 39.1342 56.6696 39.1342C51.4873 39.1342 47.2266 43.3951 47.2266 48.5775V58.2998H41.4155V48.5775C41.4155 40.1876 48.2797 33.3233 56.6696 33.3233Z" fill="#BDDFFF"/>
<path id="Vector_5" fill-rule="evenodd" clip-rule="evenodd" d="M57.5046 33.3469C65.5102 33.7842 71.9238 40.4682 71.9238 48.5777V58.3H67.7826V48.5777C67.7826 43.3954 63.5219 39.1344 58.3396 39.1344C58.0583 39.1344 57.78 39.1478 57.5046 39.1723C57.2292 39.1478 56.9509 39.1344 56.6696 39.1344C51.4873 39.1344 47.2266 43.3954 47.2266 48.5777V58.3H43.0854V48.5777C43.0854 40.4679 49.4992 33.7842 57.5046 33.3469Z" fill="var(--fill-0, white)"/>
<path id="Vector_6" d="M74.6479 53.2782H38.6914C36.5851 53.2782 34.8777 54.9856 34.8777 57.0918V82.5156C34.8777 84.6218 36.5851 86.3293 38.6914 86.3293H74.6479C76.7541 86.3293 78.4616 84.6218 78.4616 82.5156V57.0918C78.4616 54.9856 76.7541 53.2782 74.6479 53.2782Z" fill="#F9AC00"/>
<path id="Vector_7" d="M74.6479 53.2782H41.8642C39.758 53.2782 38.0506 54.9856 38.0506 57.0918V82.5156C38.0506 84.6218 39.758 86.3293 41.8642 86.3293H74.6479C76.7541 86.3293 78.4616 84.6218 78.4616 82.5156V57.0918C78.4616 54.9856 76.7541 53.2782 74.6479 53.2782Z" fill="#FDC72E"/>
<path id="Vector_8" d="M100.035 90.5293H18.9425C13.7413 90.5293 9.52482 94.7457 9.52482 99.9469V99.9472C9.52482 105.148 13.7413 109.365 18.9425 109.365H100.035C105.236 109.365 109.452 105.148 109.452 99.9472V99.9469C109.452 94.7457 105.236 90.5293 100.035 90.5293Z" fill="#2A93FC"/>
<g id="Group_2">
<path id="Vector_9" fill-rule="evenodd" clip-rule="evenodd" d="M18.9424 90.5293H100.034C105.214 90.5293 109.452 94.7673 109.452 99.947C109.452 101.401 109.118 102.781 108.523 104.013C106.799 105.89 104.327 107.071 101.593 107.071H20.501C15.3211 107.071 11.0833 102.833 11.0833 97.6536C11.0833 96.1997 11.4173 94.8201 12.012 93.5875C13.7365 91.7105 16.2082 90.5293 18.9424 90.5293Z" fill="#5CAEFF"/>
<path id="Vector_10" fill-rule="evenodd" clip-rule="evenodd" d="M58.0058 60.6871C60.4719 60.6871 62.4711 62.6863 62.4711 65.1525C62.4711 66.8809 61.489 68.3799 60.0524 69.122V76.8742C60.0524 78 59.1315 78.9209 58.0058 78.9209C56.88 78.9209 55.9591 78 55.9591 76.8742V69.1222C54.5225 68.3799 53.5404 66.8809 53.5404 65.1525C53.5404 62.6863 55.5396 60.6871 58.0058 60.6871Z" fill="#F9AC00"/>
<path id="Vector_11" fill-rule="evenodd" clip-rule="evenodd" d="M56.6698 60.6871C59.136 60.6871 61.1352 62.6863 61.1352 65.1525C61.1352 66.8809 60.1531 68.3799 58.7165 69.122V76.8742C58.7165 78 57.7956 78.9209 56.6698 78.9209C55.5441 78.9209 54.6232 78 54.6232 76.8742V69.1222C53.1866 68.3799 52.2045 66.8809 52.2045 65.1525C52.2045 62.6863 54.2037 60.6871 56.6698 60.6871Z" fill="var(--fill-0, white)"/>
<path id="Vector_12" fill-rule="evenodd" clip-rule="evenodd" d="M102.098 100.792C102.735 101.161 102.952 101.977 102.583 102.614C102.214 103.251 101.399 103.468 100.762 103.099L99.3047 102.258V103.944C99.3047 104.682 98.7067 105.28 97.9688 105.28C97.2309 105.28 96.6329 104.682 96.6329 103.944V102.258L95.1758 103.099C94.539 103.468 93.7234 103.251 93.3545 102.614C92.9855 101.977 93.2029 101.161 93.8399 100.792L95.3032 99.9474L93.8399 99.1027C93.2031 98.7337 92.9858 97.9184 93.3545 97.2813C93.7234 96.6443 94.5388 96.4272 95.1758 96.7959L96.6329 97.6371V95.951C96.6329 95.2131 97.2309 94.615 97.9688 94.615C98.7067 94.615 99.3047 95.2131 99.3047 95.951V97.6369L100.762 96.7957C101.399 96.427 102.214 96.6441 102.583 97.2811C102.952 97.9179 102.735 98.7335 102.098 99.1024L100.634 99.9472L102.098 100.792V100.792ZM21.3426 95.9512C21.3426 95.2133 21.9406 94.6152 22.6785 94.6152C23.4164 94.6152 24.0144 95.2133 24.0144 95.9512V97.6371L25.4715 96.7959C26.1085 96.4272 26.9239 96.6443 27.2928 97.2813C27.6615 97.9181 27.4445 98.7337 26.8074 99.1027L25.3441 99.9476L26.8074 100.792C27.4442 101.161 27.6615 101.977 27.2928 102.614C26.9239 103.251 26.1085 103.468 25.4715 103.099L24.0147 102.258V103.944C24.0147 104.682 23.4166 105.28 22.6787 105.28C21.9408 105.28 21.3428 104.682 21.3428 103.944V102.258L19.8857 103.099C19.2489 103.468 18.4333 103.251 18.0644 102.614C17.6957 101.977 17.9128 101.161 18.5498 100.792L20.0131 99.9476L18.5498 99.1027C17.913 98.7337 17.6957 97.9184 18.0644 97.2813C18.4333 96.6443 19.2487 96.4272 19.8857 96.7959L21.3428 97.6374V95.9512H21.3426ZM36.4006 95.9512C36.4006 95.2133 36.9986 94.6152 37.7365 94.6152C38.4744 94.6152 39.0724 95.2133 39.0724 95.9512V97.6371L40.5295 96.7959C41.1663 96.4272 41.9819 96.6443 42.3508 97.2813C42.7198 97.9181 42.5025 98.7337 41.8654 99.1027L40.4022 99.9476L41.8654 100.792C42.5022 101.161 42.7196 101.977 42.3508 102.614C41.9819 103.251 41.1665 103.468 40.5295 103.099L39.0727 102.258V103.944C39.0727 104.682 38.4746 105.28 37.7367 105.28C36.9988 105.28 36.4008 104.682 36.4008 103.944V102.258L34.9437 103.099C34.3067 103.468 33.4913 103.251 33.1224 102.614C32.7535 101.977 32.9708 101.161 33.6078 100.792L35.0711 99.9476L33.6078 99.1027C32.971 98.7337 32.7537 97.9184 33.1224 97.2813C33.4913 96.6443 34.3067 96.4272 34.9437 96.7959L36.4008 97.6374L36.4006 95.9512ZM51.4586 95.9512C51.4586 95.2133 52.0566 94.6152 52.7945 94.6152C53.5324 94.6152 54.1305 95.2133 54.1305 95.9512V97.6371L55.5875 96.7959C56.2243 96.4272 57.0399 96.6443 57.4089 97.2813C57.7778 97.9181 57.5605 98.7337 56.9235 99.1027L55.4602 99.9474L56.9235 100.792C57.5603 101.161 57.7776 101.977 57.4089 102.614C57.0399 103.251 56.2246 103.468 55.5875 103.099L54.1305 102.258V103.944C54.1305 104.682 53.5324 105.28 52.7945 105.28C52.0566 105.28 51.4586 104.682 51.4586 103.944V102.258L50.0015 103.099C49.3647 103.468 48.5491 103.251 48.1802 102.614C47.8113 101.977 48.0286 101.161 48.6656 100.792L50.1289 99.9474L48.6656 99.1027C48.0288 98.7337 47.8115 97.9184 48.1802 97.2813C48.5489 96.6443 49.3645 96.4272 50.0015 96.7959L51.4586 97.6371V95.9512ZM66.5166 95.9512C66.5166 95.2133 67.1147 94.6152 67.8526 94.6152C68.5904 94.6152 69.1885 95.2133 69.1885 95.9512V97.6371L70.6456 96.7959C71.2823 96.4272 72.0979 96.6443 72.4669 97.2813C72.8358 97.9181 72.6185 98.7337 71.9815 99.1027L70.5182 99.9476L71.9815 100.792C72.6183 101.161 72.8356 101.977 72.4669 102.614C72.0979 103.251 71.2826 103.468 70.6456 103.099L69.1885 102.258V103.944C69.1885 104.682 68.5904 105.28 67.8526 105.28C67.1147 105.28 66.5166 104.682 66.5166 103.944V102.258L65.0596 103.099C64.4228 103.468 63.6072 103.251 63.2382 102.614C62.8693 101.977 63.0866 101.161 63.7236 100.792L65.1869 99.9476L63.7236 99.1027C63.0868 98.7337 62.8695 97.9184 63.2382 97.2813C63.6072 96.6443 64.4225 96.4272 65.0596 96.7959L66.5166 97.6374V95.9512ZM81.5746 95.9512C81.5746 95.2133 82.1727 94.6152 82.9106 94.6152C83.6485 94.6152 84.2465 95.2133 84.2465 95.9512V97.6371L85.7036 96.7959C86.3404 96.4272 87.156 96.6443 87.5249 97.2813C87.8938 97.9181 87.6765 98.7337 87.0395 99.1027L85.5762 99.9476L87.0395 100.792C87.6765 101.161 87.8936 101.977 87.5249 102.614C87.156 103.251 86.3406 103.468 85.7036 103.099L84.2467 102.258V103.944C84.2467 104.682 83.6487 105.28 82.9108 105.28C82.1729 105.28 81.5749 104.682 81.5749 103.944V102.258L80.1178 103.099C79.481 103.468 78.6654 103.251 78.2965 102.614C77.9275 101.977 78.1448 101.161 78.7819 100.792L80.2451 99.9476L78.7819 99.1027C78.1448 98.7337 77.9277 97.9184 78.2965 97.2813C78.6654 96.6443 79.4808 96.4272 80.1178 96.7959L81.5749 97.6374V95.9512H81.5746Z" fill="#2A93FC"/>
<path id="Vector_13" fill-rule="evenodd" clip-rule="evenodd" d="M101.263 100.792C101.9 101.161 102.117 101.977 101.748 102.614C101.379 103.251 100.564 103.468 99.927 103.099L98.4699 102.258V103.944C98.4699 104.682 97.8718 105.28 97.134 105.28C96.3961 105.28 95.798 104.682 95.798 103.944V102.258L94.341 103.099C93.7039 103.468 92.8886 103.251 92.5196 102.614C92.1509 101.977 92.368 101.161 93.005 100.792L94.4683 99.9474L93.005 99.1027C92.368 98.7337 92.1509 97.9184 92.5196 97.2813C92.8886 96.6443 93.7039 96.4272 94.341 96.7959L95.798 97.6371V95.951C95.798 95.2131 96.3961 94.615 97.134 94.615C97.8718 94.615 98.4699 95.2131 98.4699 95.951V97.6369L99.927 96.7957C100.564 96.427 101.379 96.6441 101.748 97.2811C102.117 97.9179 101.9 98.7335 101.263 99.1024L99.7996 99.9472L101.263 100.792V100.792ZM20.5077 95.9512C20.5077 95.2133 21.1057 94.6152 21.8436 94.6152C22.5815 94.6152 23.1796 95.2133 23.1796 95.9512V97.6371L24.6366 96.7959C25.2734 96.4272 26.089 96.6443 26.458 97.2813C26.8269 97.9181 26.6096 98.7337 25.9726 99.1027L24.5093 99.9476L25.9726 100.792C26.6094 101.161 26.8267 101.977 26.458 102.614C26.089 103.251 25.2737 103.468 24.6366 103.099L23.1798 102.258V103.944C23.1798 104.682 22.5817 105.28 21.8439 105.28C21.106 105.28 20.5079 104.682 20.5079 103.944V102.258L19.0509 103.099C18.4141 103.468 17.5985 103.251 17.2295 102.614C16.8606 101.977 17.0779 101.161 17.7149 100.792L19.1782 99.9476L17.7149 99.1027C17.0781 98.7337 16.8608 97.9184 17.2295 97.2813C17.5985 96.6443 18.4138 96.4272 19.0509 96.7959L20.5079 97.6374V95.9512H20.5077ZM35.5657 95.9512C35.5657 95.2133 36.1638 94.6152 36.9016 94.6152C37.6395 94.6152 38.2376 95.2133 38.2376 95.9512V97.6371L39.6946 96.7959C40.3314 96.4272 41.147 96.6443 41.516 97.2813C41.8849 97.9181 41.6676 98.7337 41.0306 99.1027L39.5673 99.9476L41.0306 100.792C41.6674 101.161 41.8847 101.977 41.516 102.614C41.147 103.251 40.3317 103.468 39.6946 103.099L38.2378 102.258V103.944C38.2378 104.682 37.6398 105.28 36.9019 105.28C36.164 105.28 35.5659 104.682 35.5659 103.944V102.258L34.1089 103.099C33.4721 103.468 32.6565 103.251 32.2875 102.614C31.9188 101.977 32.1359 101.161 32.7729 100.792L34.2362 99.9476L32.7729 99.1027C32.1361 98.7337 31.9188 97.9184 32.2875 97.2813C32.6565 96.6443 33.4719 96.4272 34.1089 96.7959L35.5659 97.6374L35.5657 95.9512ZM50.6237 95.9512C50.6237 95.2133 51.2218 94.6152 51.9597 94.6152C52.6976 94.6152 53.2956 95.2133 53.2956 95.9512V97.6371L54.7527 96.7959C55.3897 96.4272 56.2051 96.6443 56.574 97.2813C56.9429 97.9181 56.7256 98.7337 56.0886 99.1027L54.6253 99.9474L56.0886 100.792C56.7254 101.161 56.9427 101.977 56.574 102.614C56.2051 103.251 55.3897 103.468 54.7527 103.099L53.2956 102.258V103.944C53.2956 104.682 52.6976 105.28 51.9597 105.28C51.2218 105.28 50.6237 104.682 50.6237 103.944V102.258L49.1667 103.099C48.5299 103.468 47.7143 103.251 47.3453 102.614C46.9764 101.977 47.1937 101.161 47.8307 100.792L49.294 99.9474L47.8307 99.1027C47.1937 98.7337 46.9766 97.9184 47.3453 97.2813C47.7143 96.6443 48.5296 96.4272 49.1667 96.7959L50.6237 97.6371V95.9512ZM65.6818 95.9512C65.6818 95.2133 66.2798 94.6152 67.0177 94.6152C67.7556 94.6152 68.3536 95.2133 68.3536 95.9512V97.6371L69.8107 96.7959C70.4475 96.4272 71.2631 96.6443 71.632 97.2813C72.001 97.9181 71.7836 98.7337 71.1466 99.1027L69.6833 99.9476L71.1466 100.792C71.7834 101.161 72.0007 101.977 71.632 102.614C71.2633 103.251 70.4477 103.468 69.8107 103.099L68.3539 102.258V103.944C68.3539 104.682 67.7558 105.28 67.0179 105.28C66.28 105.28 65.682 104.682 65.682 103.944V102.258L64.2249 103.099C63.5881 103.468 62.7725 103.251 62.4036 102.614C62.0346 101.977 62.252 101.161 62.889 100.792L64.3523 99.9476L62.8888 99.1027C62.252 98.7337 62.0346 97.9184 62.4034 97.2813C62.7723 96.6443 63.5877 96.4272 64.2247 96.7959L65.6818 97.6374V95.9512ZM80.7398 95.9512C80.7398 95.2133 81.3378 94.6152 82.0757 94.6152C82.8136 94.6152 83.4116 95.2133 83.4116 95.9512V97.6371L84.8687 96.7959C85.5057 96.4272 86.3211 96.6443 86.69 97.2813C87.059 97.9181 86.8417 98.7337 86.2046 99.1027L84.7414 99.9476L86.2046 100.792C86.8414 101.161 87.0588 101.977 86.69 102.614C86.3211 103.251 85.5057 103.468 84.8687 103.099L83.4119 102.258V103.944C83.4119 104.682 82.8138 105.28 82.0759 105.28C81.338 105.28 80.74 104.682 80.74 103.944V102.258L79.2829 103.099C78.6461 103.468 77.8305 103.251 77.4616 102.614C77.0927 101.977 77.31 101.161 77.947 100.792L79.4103 99.9476L77.947 99.1027C77.3102 98.7337 77.0929 97.9184 77.4616 97.2813C77.8303 96.6443 78.6459 96.4272 79.2829 96.7959L80.74 97.6374V95.9512H80.7398Z" fill="var(--fill-0, white)"/>
</g>
</g>
</svg>
